<mxfile host="app.diagrams.net" modified="2023-07-31T10:05:41.981Z" agent="Mozilla/5.0 (Windows NT 10.0; Win64; x64) AppleWebKit/537.36 (KHTML, like Gecko) Chrome/115.0.0.0 Safari/537.36" version="21.6.5" etag="U9CYnjnakt2rSx4YPcWD" type="github">
  <diagram name="ページ1" id="xtqbgnvQGNr0HavTJoLX">
    <mxGraphModel>
      <root>
        <mxCell id="0" />
        <mxCell id="1" parent="0" />
      </root>
    </mxGraphModel>
  </diagram>
</mxfile>
